<svg width="147" height="30" viewBox="0 0 147 30" fill="none" xmlns="http://www.w3.org/2000/svg">
<path d="M63.68 23V5.72H66.944V12.824H74.672V5.72H77.936V23H74.672V15.872H66.944V23H63.68ZM87.137 23.36C85.833 23.36 84.689 23.068 83.705 22.484C82.721 21.9 81.953 21.096 81.401 20.072C80.857 19.04 80.585 17.856 80.585 16.52C80.585 15.168 80.865 13.98 81.425 12.956C81.985 11.924 82.757 11.12 83.741 10.544C84.725 9.968 85.857 9.68 87.137 9.68C88.441 9.68 89.585 9.972 90.569 10.556C91.561 11.14 92.333 11.948 92.885 12.98C93.437 14.004 93.713 15.184 93.713 16.52C93.713 17.864 93.433 19.052 92.873 20.084C92.321 21.108 91.549 21.912 90.557 22.496C89.573 23.072 88.433 23.36 87.137 23.36ZM87.137 20.312C88.185 20.312 88.965 19.96 89.477 19.256C89.997 18.544 90.257 17.632 90.257 16.52C90.257 15.368 89.993 14.448 89.465 13.76C88.945 13.072 88.169 12.728 87.137 12.728C86.425 12.728 85.841 12.888 85.385 13.208C84.929 13.528 84.589 13.972 84.365 14.54C84.149 15.108 84.041 15.768 84.041 16.52C84.041 17.68 84.301 18.604 84.821 19.292C85.349 19.972 86.121 20.312 87.137 20.312ZM102.184 23.36C100.88 23.36 99.7359 23.068 98.7519 22.484C97.7679 21.9 96.9999 21.096 96.4479 20.072C95.9039 19.04 95.6319 17.856 95.6319 16.52C95.6319 15.168 95.9119 13.98 96.4719 12.956C97.0319 11.924 97.8039 11.12 98.7879 10.544C99.7719 9.968 100.904 9.68 102.184 9.68C103.488 9.68 104.632 9.972 105.616 10.556C106.608 11.14 107.38 11.948 107.932 12.98C108.484 14.004 108.76 15.184 108.76 16.52C108.76 17.864 108.48 19.052 107.92 20.084C107.368 21.108 106.596 21.912 105.604 22.496C104.62 23.072 103.48 23.36 102.184 23.36ZM102.184 20.312C103.232 20.312 104.012 19.96 104.524 19.256C105.044 18.544 105.304 17.632 105.304 16.52C105.304 15.368 105.04 14.448 104.512 13.76C103.992 13.072 103.216 12.728 102.184 12.728C101.472 12.728 100.888 12.888 100.432 13.208C99.9759 13.528 99.6359 13.972 99.4119 14.54C99.1959 15.108 99.0879 15.768 99.0879 16.52C99.0879 17.68 99.3479 18.604 99.8679 19.292C100.396 19.972 101.168 20.312 102.184 20.312ZM111.399 23V10.04H114.279V13.208L113.967 12.8C114.135 12.352 114.359 11.944 114.639 11.576C114.919 11.208 115.263 10.904 115.671 10.664C115.983 10.472 116.323 10.324 116.691 10.22C117.059 10.108 117.439 10.04 117.831 10.016C118.223 9.984 118.615 9.992 119.007 10.04V13.088C118.647 12.976 118.227 12.94 117.747 12.98C117.275 13.012 116.847 13.12 116.463 13.304C116.079 13.48 115.755 13.716 115.491 14.012C115.227 14.3 115.027 14.644 114.891 15.044C114.755 15.436 114.687 15.88 114.687 16.376V23H111.399ZM124.632 23.36C123.704 23.36 122.916 23.184 122.268 22.832C121.628 22.472 121.14 21.996 120.804 21.404C120.476 20.804 120.312 20.144 120.312 19.424C120.312 18.824 120.404 18.276 120.588 17.78C120.772 17.284 121.068 16.848 121.476 16.472C121.892 16.088 122.448 15.768 123.144 15.512C123.624 15.336 124.196 15.18 124.86 15.044C125.524 14.908 126.276 14.78 127.116 14.66C127.956 14.532 128.88 14.392 129.888 14.24L128.712 14.888C128.712 14.12 128.528 13.556 128.16 13.196C127.792 12.836 127.176 12.656 126.312 12.656C125.832 12.656 125.332 12.772 124.812 13.004C124.292 13.236 123.928 13.648 123.72 14.24L120.768 13.304C121.096 12.232 121.712 11.36 122.616 10.688C123.52 10.016 124.752 9.68 126.312 9.68C127.456 9.68 128.472 9.856 129.36 10.208C130.248 10.56 130.92 11.168 131.376 12.032C131.632 12.512 131.784 12.992 131.832 13.472C131.88 13.952 131.904 14.488 131.904 15.08V23H129.048V20.336L129.456 20.888C128.824 21.76 128.14 22.392 127.404 22.784C126.676 23.168 125.752 23.36 124.632 23.36ZM125.328 20.792C125.928 20.792 126.432 20.688 126.84 20.48C127.256 20.264 127.584 20.02 127.824 19.748C128.072 19.476 128.24 19.248 128.328 19.064C128.496 18.712 128.592 18.304 128.616 17.84C128.648 17.368 128.664 16.976 128.664 16.664L129.624 16.904C128.656 17.064 127.872 17.2 127.272 17.312C126.672 17.416 126.188 17.512 125.82 17.6C125.452 17.688 125.128 17.784 124.848 17.888C124.528 18.016 124.268 18.156 124.068 18.308C123.876 18.452 123.732 18.612 123.636 18.788C123.548 18.964 123.504 19.16 123.504 19.376C123.504 19.672 123.576 19.928 123.72 20.144C123.872 20.352 124.084 20.512 124.356 20.624C124.628 20.736 124.952 20.792 125.328 20.792ZM135.953 28.76L138.449 21.896L138.497 23.912L132.857 10.04H136.241L140.033 19.856H139.265L143.033 10.04H146.297L138.977 28.76H135.953Z" fill="#F8E115"/>
<circle cx="105.5" cy="6.5" r="1.5" fill="#F8E115"/>
<circle cx="98.5" cy="6.5" r="1.5" fill="#F8E115"/>
<g filter="url(#filter0_d_217_290)">
<path d="M24.5592 4.00078C25.8248 1.98117 28.6609 1.70994 30.2864 3.45307L31.2292 4.4641C32.1638 5.46629 33.5923 5.84002 34.8979 5.42393L37.9024 4.46641C39.6842 3.89857 41.2926 5.71669 40.5118 7.41595V7.41595C39.9944 8.54171 40.5319 9.87071 41.6864 10.3204L45.144 11.667C48.5254 12.984 48.2241 17.8649 44.7064 18.7559V18.7559C43.3767 19.0927 42.3393 20.1324 42.0054 21.4628L41.8318 22.1547C41.1064 25.0452 37.9992 26.6334 35.2315 25.5283L31.0344 23.8525C30.0353 23.4535 28.9693 23.2486 27.8935 23.2486H22.9895C21.0199 23.2486 19.4232 21.6519 19.4232 19.6823V18.7721C19.4232 17.3266 18.2621 16.1492 16.8167 16.1291L14.2407 16.0932C11.6889 16.0578 11.1752 12.4643 13.6149 11.7153L14.018 11.5916C15.4821 11.1421 15.9138 9.27833 14.7964 8.23092V8.23092C13.3387 6.86436 14.5737 4.44147 16.536 4.81821L21.0127 5.67769C22.3555 5.93549 23.7187 5.34193 24.4448 4.18335L24.5592 4.00078Z" fill="white"/>
</g>
<ellipse cx="30.1097" cy="13.2329" rx="5.17808" ry="3.26027" fill="#F8E115"/>
<defs>
<filter id="filter0_d_217_290" x="10.0317" y="2.29922" width="39.4878" height="27.5822" filterUnits="userSpaceOnUse" color-interpolation-filters="sRGB">
<feFlood flood-opacity="0" result="BackgroundImageFix"/>
<feColorMatrix in="SourceAlpha" type="matrix" values="0 0 0 0 0 0 0 0 0 0 0 0 0 0 0 0 0 0 127 0" result="hardAlpha"/>
<feOffset dy="2"/>
<feGaussianBlur stdDeviation="1"/>
<feComposite in2="hardAlpha" operator="out"/>
<feColorMatrix type="matrix" values="0 0 0 0 0 0 0 0 0 0 0 0 0 0 0 0 0 0 0.15 0"/>
<feBlend mode="normal" in2="BackgroundImageFix" result="effect1_dropShadow_217_290"/>
<feBlend mode="normal" in="SourceGraphic" in2="effect1_dropShadow_217_290" result="shape"/>
</filter>
</defs>
</svg>
