<svg width="85" height="27" viewBox="0 0 85 27" fill="none" xmlns="http://www.w3.org/2000/svg">
<path d="M1.68 21V3.72H4.944V10.824H12.672V3.72H15.936V21H12.672V13.872H4.944V21H1.68ZM25.137 21.36C23.833 21.36 22.689 21.068 21.705 20.484C20.721 19.9 19.953 19.096 19.401 18.072C18.857 17.04 18.585 15.856 18.585 14.52C18.585 13.168 18.865 11.98 19.425 10.956C19.985 9.924 20.757 9.12 21.741 8.544C22.725 7.968 23.857 7.68 25.137 7.68C26.441 7.68 27.585 7.972 28.569 8.556C29.561 9.14 30.333 9.948 30.885 10.98C31.437 12.004 31.713 13.184 31.713 14.52C31.713 15.864 31.433 17.052 30.873 18.084C30.321 19.108 29.549 19.912 28.557 20.496C27.573 21.072 26.433 21.36 25.137 21.36ZM25.137 18.312C26.185 18.312 26.965 17.96 27.477 17.256C27.997 16.544 28.257 15.632 28.257 14.52C28.257 13.368 27.993 12.448 27.465 11.76C26.945 11.072 26.169 10.728 25.137 10.728C24.425 10.728 23.841 10.888 23.385 11.208C22.929 11.528 22.589 11.972 22.365 12.54C22.149 13.108 22.041 13.768 22.041 14.52C22.041 15.68 22.301 16.604 22.821 17.292C23.349 17.972 24.121 18.312 25.137 18.312ZM40.1839 21.36C38.8799 21.36 37.7359 21.068 36.7519 20.484C35.7679 19.9 34.9999 19.096 34.4479 18.072C33.9039 17.04 33.6319 15.856 33.6319 14.52C33.6319 13.168 33.9119 11.98 34.4719 10.956C35.0319 9.924 35.8039 9.12 36.7879 8.544C37.7719 7.968 38.9039 7.68 40.1839 7.68C41.4879 7.68 42.6319 7.972 43.6159 8.556C44.6079 9.14 45.3799 9.948 45.9319 10.98C46.4839 12.004 46.7599 13.184 46.7599 14.52C46.7599 15.864 46.4799 17.052 45.9199 18.084C45.3679 19.108 44.5959 19.912 43.6039 20.496C42.6199 21.072 41.4799 21.36 40.1839 21.36ZM40.1839 18.312C41.2319 18.312 42.0119 17.96 42.5239 17.256C43.0439 16.544 43.3039 15.632 43.3039 14.52C43.3039 13.368 43.0399 12.448 42.5119 11.76C41.9919 11.072 41.2159 10.728 40.1839 10.728C39.4719 10.728 38.8879 10.888 38.4319 11.208C37.9759 11.528 37.6359 11.972 37.4119 12.54C37.1959 13.108 37.0879 13.768 37.0879 14.52C37.0879 15.68 37.3479 16.604 37.8679 17.292C38.3959 17.972 39.1679 18.312 40.1839 18.312ZM49.3988 21V8.04H52.2788V11.208L51.9668 10.8C52.1348 10.352 52.3588 9.944 52.6388 9.576C52.9188 9.208 53.2628 8.904 53.6708 8.664C53.9828 8.472 54.3228 8.324 54.6908 8.22C55.0588 8.108 55.4388 8.04 55.8308 8.016C56.2228 7.984 56.6148 7.992 57.0068 8.04V11.088C56.6468 10.976 56.2268 10.94 55.7468 10.98C55.2748 11.012 54.8468 11.12 54.4628 11.304C54.0788 11.48 53.7548 11.716 53.4908 12.012C53.2268 12.3 53.0268 12.644 52.8908 13.044C52.7548 13.436 52.6868 13.88 52.6868 14.376V21H49.3988ZM62.6316 21.36C61.7036 21.36 60.9156 21.184 60.2676 20.832C59.6276 20.472 59.1396 19.996 58.8036 19.404C58.4756 18.804 58.3116 18.144 58.3116 17.424C58.3116 16.824 58.4036 16.276 58.5876 15.78C58.7716 15.284 59.0676 14.848 59.4756 14.472C59.8916 14.088 60.4476 13.768 61.1436 13.512C61.6236 13.336 62.1956 13.18 62.8596 13.044C63.5236 12.908 64.2756 12.78 65.1156 12.66C65.9556 12.532 66.8796 12.392 67.8876 12.24L66.7116 12.888C66.7116 12.12 66.5276 11.556 66.1596 11.196C65.7916 10.836 65.1756 10.656 64.3116 10.656C63.8316 10.656 63.3316 10.772 62.8116 11.004C62.2916 11.236 61.9276 11.648 61.7196 12.24L58.7676 11.304C59.0956 10.232 59.7116 9.36 60.6156 8.688C61.5196 8.016 62.7516 7.68 64.3116 7.68C65.4556 7.68 66.4716 7.856 67.3596 8.208C68.2476 8.56 68.9196 9.168 69.3756 10.032C69.6316 10.512 69.7836 10.992 69.8316 11.472C69.8796 11.952 69.9036 12.488 69.9036 13.08V21H67.0476V18.336L67.4556 18.888C66.8236 19.76 66.1396 20.392 65.4036 20.784C64.6756 21.168 63.7516 21.36 62.6316 21.36ZM63.3276 18.792C63.9276 18.792 64.4316 18.688 64.8396 18.48C65.2556 18.264 65.5836 18.02 65.8236 17.748C66.0716 17.476 66.2396 17.248 66.3276 17.064C66.4956 16.712 66.5916 16.304 66.6156 15.84C66.6476 15.368 66.6636 14.976 66.6636 14.664L67.6236 14.904C66.6556 15.064 65.8716 15.2 65.2716 15.312C64.6716 15.416 64.1876 15.512 63.8196 15.6C63.4516 15.688 63.1276 15.784 62.8476 15.888C62.5276 16.016 62.2676 16.156 62.0676 16.308C61.8756 16.452 61.7316 16.612 61.6356 16.788C61.5476 16.964 61.5036 17.16 61.5036 17.376C61.5036 17.672 61.5756 17.928 61.7196 18.144C61.8716 18.352 62.0836 18.512 62.3556 18.624C62.6276 18.736 62.9516 18.792 63.3276 18.792ZM73.9532 26.76L76.4492 19.896L76.4972 21.912L70.8572 8.04H74.2412L78.0332 17.856H77.2652L81.0332 8.04H84.2972L76.9772 26.76H73.9532Z" fill="#F8E115"/>
<circle cx="43.5" cy="4.5" r="1.5" fill="#F8E115"/>
<circle cx="36.5" cy="4.5" r="1.5" fill="#F8E115"/>
</svg>
