<svg width="56" height="30" viewBox="0 0 56 30" fill="none" xmlns="http://www.w3.org/2000/svg">
<g filter="url(#filter0_d_217_295)">
<path d="M24.5592 4.00078C25.8248 1.98117 28.6609 1.70994 30.2864 3.45307L31.2292 4.4641C32.1638 5.46629 33.5923 5.84002 34.8979 5.42393L37.9024 4.46641C39.6842 3.89857 41.2926 5.71669 40.5118 7.41595V7.41595C39.9944 8.54171 40.5319 9.87071 41.6864 10.3204L45.144 11.667C48.5254 12.984 48.2241 17.8649 44.7064 18.7559V18.7559C43.3767 19.0927 42.3393 20.1324 42.0054 21.4628L41.8318 22.1547C41.1064 25.0452 37.9992 26.6334 35.2315 25.5283L31.0344 23.8525C30.0353 23.4535 28.9693 23.2486 27.8935 23.2486H22.9895C21.0199 23.2486 19.4232 21.6519 19.4232 19.6823V18.7721C19.4232 17.3266 18.2621 16.1492 16.8167 16.1291L14.2407 16.0932C11.6889 16.0578 11.1752 12.4643 13.6149 11.7153L14.018 11.5916C15.4821 11.1421 15.9138 9.27833 14.7964 8.23092V8.23092C13.3387 6.86436 14.5737 4.44147 16.536 4.81821L21.0127 5.67769C22.3555 5.93549 23.7187 5.34193 24.4448 4.18335L24.5592 4.00078Z" fill="white"/>
</g>
<ellipse cx="30.1097" cy="13.2329" rx="5.17808" ry="3.26027" fill="#F8E115"/>
<defs>
<filter id="filter0_d_217_295" x="10.0317" y="2.29922" width="39.4878" height="27.5822" filterUnits="userSpaceOnUse" color-interpolation-filters="sRGB">
<feFlood flood-opacity="0" result="BackgroundImageFix"/>
<feColorMatrix in="SourceAlpha" type="matrix" values="0 0 0 0 0 0 0 0 0 0 0 0 0 0 0 0 0 0 127 0" result="hardAlpha"/>
<feOffset dy="2"/>
<feGaussianBlur stdDeviation="1"/>
<feComposite in2="hardAlpha" operator="out"/>
<feColorMatrix type="matrix" values="0 0 0 0 0 0 0 0 0 0 0 0 0 0 0 0 0 0 0.15 0"/>
<feBlend mode="normal" in2="BackgroundImageFix" result="effect1_dropShadow_217_295"/>
<feBlend mode="normal" in="SourceGraphic" in2="effect1_dropShadow_217_295" result="shape"/>
</filter>
</defs>
</svg>
