<svg width="28" height="28" viewBox="0 0 28 28" fill="none" xmlns="http://www.w3.org/2000/svg">
<path d="M6.45873 0.00344092C6.02815 0.0156038 5.29592 0.0618228 4.95048 0.100744C4.13067 0.19075 3.19896 0.516715 2.5543 0.937552C1.87072 1.38758 1.27228 2.00059 0.86603 2.67198C0.457341 3.34824 0.18245 4.18505 0.0973067 4.99509C0 5.93164 0 5.98029 0 14.0248C0 22.0961 0 22.1496 0.0997394 23.0497C0.216507 24.1006 0.642224 25.1296 1.30877 25.9566C1.63962 26.3677 2.1894 26.8421 2.67107 27.134C3.34735 27.5427 4.18419 27.8176 4.99427 27.9027C5.93084 28 5.9795 28 14.0243 28C22.0838 28 22.164 28 23.0495 27.9003C24.2756 27.764 25.4165 27.2337 26.2825 26.3945C27.1924 25.5139 27.7665 24.3098 27.9027 23.0059C28 22.0694 28 22.0207 28 13.9762C28 5.91704 28 5.83677 27.9003 4.95131C27.7592 3.66691 27.1778 2.46764 26.2728 1.59921C25.3897 0.74781 24.2488 0.224806 22.9936 0.0983115C22.0813 0.0058735 22.0886 0.0058735 14.3162 0.00100834C10.1345 -0.00142424 6.59983 0.00100834 6.45873 0.00344092ZM8.03997 5.6081C8.74057 5.77595 9.31468 6.33545 9.50443 7.03603C9.57255 7.28902 9.57984 7.78526 9.51659 8.01393C9.41685 8.37881 9.27819 8.6391 9.03979 8.89695C8.49487 9.48807 7.6775 9.69727 6.91607 9.43698C6.04275 9.14021 5.4735 8.24016 5.5854 7.33037C5.68758 6.4814 6.26412 5.82704 7.10339 5.60567C7.34665 5.54242 7.76751 5.54486 8.03997 5.6081ZM18.8459 11.0449C19.4443 11.1349 19.9576 11.3198 20.4441 11.6239C20.7312 11.8015 21.1399 12.1201 21.2956 12.288C21.6824 12.6991 22.1202 13.5651 22.3051 14.2754C22.4316 14.7595 22.4292 14.6719 22.4292 18.6832V22.4294L20.7215 22.4367L19.0113 22.4416V19.2451C19.0113 15.7471 19.0162 15.8468 18.8678 15.4187C18.5758 14.5697 17.6904 14.0613 16.6857 14.1708C16.0921 14.234 15.6275 14.4311 15.3112 14.7546C14.9682 15.1049 14.7395 15.606 14.6568 16.1777C14.6422 16.2823 14.6325 17.5059 14.6325 19.3935V22.4416H12.9296H11.2268V16.8223V11.203H12.8323H14.4379V12.0082V12.811L14.5838 12.631C15.2261 11.8306 16.3281 11.2176 17.4228 11.0474C17.7195 11.0011 18.5467 10.9987 18.8459 11.0449ZM9.30495 16.8223V22.4416H7.56559H5.82624V16.8223V11.203H7.56559H9.30495V16.8223Z" fill="#0066C8"/>
</svg>
