<?xml version="1.0" standalone="no"?>
<!DOCTYPE svg PUBLIC "-//W3C//DTD SVG 20010904//EN"
 "http://www.w3.org/TR/2001/REC-SVG-20010904/DTD/svg10.dtd">
<svg version="1.0" xmlns="http://www.w3.org/2000/svg"
 width="1921.000000pt" height="1921.000000pt" viewBox="0 0 1921.000000 1921.000000"
 preserveAspectRatio="xMidYMid meet">

<g transform="translate(0.000000,1921.000000) scale(0.100000,-0.100000)"
fill="#EB531F" stroke="none">
<path d="M9375 19164 c-1843 -53 -3553 -593 -5070 -1601 -1515 -1008 -2736
-2464 -3463 -4128 -406 -931 -663 -1929 -756 -2940 -53 -568 -53 -1212 0
-1780 204 -2217 1178 -4289 2759 -5870 1113 -1113 2489 -1939 3979 -2390 614
-185 1258 -311 1891 -369 568 -53 1212 -53 1780 0 2217 204 4289 1178 5870
2759 1113 1113 1939 2489 2390 3979 185 614 311 1258 369 1891 53 568 53 1212
0 1780 -204 2217 -1178 4289 -2759 5870 -1113 1113 -2489 1939 -3979 2390
-727 219 -1481 353 -2231 394 -207 12 -618 19 -780 15z m-3591 -4704 c339 -72
615 -220 850 -455 243 -242 399 -545 462 -890 25 -138 25 -412 0 -550 -130
-719 -689 -1261 -1404 -1361 -150 -21 -403 -14 -544 15 -584 119 -1067 546
-1249 1103 -62 191 -74 272 -74 518 0 196 3 238 23 327 49 225 145 447 269
623 84 119 280 315 396 397 212 149 469 251 727 289 137 19 415 12 544 -16z
m4140 1 c314 -65 591 -210 819 -430 261 -253 426 -560 488 -909 29 -162 29
-402 0 -564 -119 -670 -639 -1203 -1307 -1338 -133 -27 -351 -36 -495 -20
-368 40 -696 193 -963 450 -423 408 -600 988 -472 1550 32 140 57 213 123 350
224 473 664 815 1170 909 160 30 153 30 353 26 136 -3 211 -9 284 -24z m4136
0 c348 -72 639 -234 883 -491 210 -221 351 -491 419 -803 19 -89 22 -131 22
-327 0 -196 -3 -238 -22 -327 -74 -342 -232 -626 -478 -864 -437 -421 -1066
-565 -1653 -377 -575 183 -1012 688 -1115 1288 -134 779 301 1540 1044 1825
98 38 264 81 365 94 115 16 425 5 535 -18z m-4127 -4140 c154 -34 252 -68 392
-136 335 -163 591 -417 758 -751 191 -382 225 -835 91 -1242 -83 -254 -211
-460 -403 -652 -142 -141 -243 -217 -393 -295 -417 -217 -855 -253 -1299 -105
-549 182 -971 656 -1089 1224 -165 788 266 1582 1020 1879 87 34 203 66 325
88 141 26 456 21 598 -10z m-68 -4126 c691 -110 1233 -641 1366 -1338 35 -184
30 -440 -12 -634 -108 -499 -431 -913 -889 -1139 -453 -224 -997 -224 -1450 0
-776 383 -1126 1288 -809 2090 83 209 241 442 401 591 292 271 611 409 1033
449 67 6 265 -4 360 -19z"/>
</g>
</svg>
